<svg width="149" height="36" viewBox="0 0 149 36" fill="none" xmlns="http://www.w3.org/2000/svg">
<g clip-path="url(#clip0_173_2140)">
<path d="M15.5434 18.1078L3.233 0.4697L3.13138 0.324951H-0.162598V23.926H3.26104V6.14666L15.5714 23.7813L15.673 23.926H18.967V0.324951H15.5434V18.1078Z" fill="#FFBA18"/>
<path d="M25.4392 0.324951H22.0786V3.51648H25.4392V0.324951Z" fill="#FFBA18"/>
<path d="M25.4392 6.46094H22.0786V23.9261H25.4392V6.46094Z" fill="#FFBA18"/>
<path d="M31.5119 9.13349V6.46094H28.1514V23.9261H31.5119V16.5651C31.5119 13.1158 33.5409 9.57832 36.5615 9.57832H37.8266V6.46447C37.8266 6.46447 38.0018 6.46447 35.7205 6.46447C33.674 6.46447 31.9394 8.32502 31.5119 9.13702V9.13349Z" fill="#FFBA18"/>
<path d="M53.7778 6.46094L48.4549 19.3541L43.2195 6.66923L43.1319 6.46094H39.6172L46.899 23.7213L46.9866 23.9261H49.9266L57.296 6.46094H53.7778Z" fill="#FFBA18"/>
<path d="M71.6534 8.91811C70.5566 7.45651 68.4295 6.13965 65.6401 6.13965C61.414 6.13965 57.1318 9.24998 57.1318 15.1953C57.1318 21.1405 61.4105 24.2509 65.6401 24.2509C68.4295 24.2509 70.5566 22.934 71.6534 21.4689V23.9261H75.0139V6.46092H71.6534V8.91811ZM71.748 15.1917C71.748 19.2411 68.8149 21.0876 66.0887 21.0876C63.3624 21.0876 60.4924 19.2447 60.4924 15.1917C60.4924 11.1388 63.3939 9.29587 66.0887 9.29587C68.7834 9.29587 71.748 11.1388 71.748 15.1917Z" fill="#FFBA18"/>
<path d="M86.9735 6.13965C84.1911 6.13965 82.5862 7.40002 81.7312 8.44856V6.46092H78.3706V23.9261H81.7312V14.0973C81.7312 11.1388 83.4202 9.2994 86.1395 9.2994C88.8588 9.2994 90.4532 11.0929 90.4532 14.0973V23.9261H93.8138V13.7089C93.8138 8.12729 90.278 6.13965 86.9735 6.13965Z" fill="#FFBA18"/>
<path d="M111.363 6.46092V8.91811C110.267 7.45651 108.139 6.13965 105.35 6.13965C101.124 6.13965 96.8418 9.24998 96.8418 15.1953C96.8418 21.1405 101.12 24.2509 105.35 24.2509C108.139 24.2509 110.267 22.934 111.363 21.4689V23.9261H114.724V6.46092H111.363ZM111.458 15.1953C111.458 19.2447 108.525 21.0911 105.799 21.0911C103.072 21.0911 100.202 19.2482 100.202 15.1953C100.202 11.1423 103.104 9.2994 105.799 9.2994C108.493 9.2994 111.458 11.1423 111.458 15.1953Z" fill="#FFBA18"/>
<path d="M78.3707 27.6687H80.7571C82.0712 27.6687 82.6844 28.3642 82.6844 29.2327C82.6844 29.96 82.2674 30.4366 81.7908 30.599C82.2253 30.7367 82.8876 31.178 82.8876 32.0994C82.8876 33.2786 81.9941 33.9352 80.8131 33.9352H78.3672V27.6687H78.3707ZM80.5994 30.2742C81.5 30.2742 81.8539 29.9176 81.8539 29.3033C81.8539 28.749 81.4579 28.3536 80.729 28.3536H79.1802V30.2742H80.5994ZM79.1802 33.2468H80.715C81.4965 33.2468 82.0396 32.8761 82.0396 32.0959C82.0396 31.418 81.6051 30.9591 80.5573 30.9591H79.1802V33.2468Z" fill="#FFBA18"/>
<path d="M84.2684 29.3669C85.0008 31.5523 85.4038 32.7668 85.523 33.2293H85.5335C85.6806 32.7103 86.003 31.6688 86.7424 29.3669H87.5344L85.9049 34.1436C85.4459 35.4782 85.1024 35.8171 84.1738 35.8171C84.0301 35.8171 83.8619 35.81 83.6867 35.7888V35.1039C83.8024 35.118 83.932 35.1251 84.0582 35.1251C84.6329 35.1251 84.8501 34.8709 85.12 34.1083L83.4204 29.3669H84.2684Z" fill="#FFBA18"/>
<path d="M91.1016 32.1912C91.2698 32.9432 91.7814 33.3492 92.682 33.3492C93.6527 33.3492 94.0346 32.8903 94.0346 32.3007C94.0346 31.6722 93.7263 31.3192 92.4823 31.0156C91.0175 30.6555 90.5094 30.1506 90.5094 29.2715C90.5094 28.3395 91.1892 27.584 92.5804 27.584C94.0627 27.584 94.6724 28.4454 94.7565 29.2715H93.919C93.8069 28.7137 93.4599 28.2548 92.5523 28.2548C91.7954 28.2548 91.3679 28.5972 91.3679 29.1974C91.3679 29.7976 91.7183 30.0165 92.8081 30.2848C94.5813 30.719 94.8967 31.4145 94.8967 32.2195C94.8967 33.2292 94.1538 34.0235 92.6329 34.0235C91.1121 34.0235 90.3937 33.1621 90.2676 32.2018H91.1086L91.1016 32.1912Z" fill="#FFBA18"/>
<path d="M99.3578 32.9396C99.3578 33.3562 99.3928 33.8046 99.4208 33.9352H98.6709C98.6359 33.8328 98.6078 33.6139 98.5973 33.3386C98.4396 33.6422 98.0787 34.0446 97.1991 34.0446C96.1304 34.0446 95.6748 33.3421 95.6748 32.6501C95.6748 31.6298 96.4703 31.1638 97.8159 31.1638H98.5868V30.7754C98.5868 30.373 98.4607 29.8822 97.6126 29.8822C96.8557 29.8822 96.7261 30.26 96.6455 30.6166H95.8886C95.9481 29.9882 96.3336 29.2609 97.6372 29.2644C98.7445 29.2679 99.3578 29.7234 99.3578 30.7613V32.9431V32.9396ZM98.5938 31.7075H97.8615C96.9574 31.7075 96.4738 31.9581 96.4738 32.6042C96.4738 33.0773 96.7962 33.4233 97.3568 33.4233C98.4502 33.4233 98.5938 32.6819 98.5938 31.8558V31.7075Z" fill="#FFBA18"/>
<path d="M100.987 29.3669C101.597 31.2346 102.045 32.6291 102.182 33.201H102.192C102.301 32.6926 102.785 31.3263 103.464 29.3669H104.26L102.592 33.9353H101.73L100.149 29.3669H100.987Z" fill="#FFBA18"/>
<path d="M108.416 32.9396C108.416 33.3562 108.451 33.8046 108.479 33.9352H107.729C107.694 33.8328 107.666 33.6139 107.655 33.3386C107.498 33.6422 107.137 34.0446 106.257 34.0446C105.188 34.0446 104.733 33.3421 104.733 32.6501C104.733 31.6298 105.528 31.1638 106.874 31.1638H107.645V30.7754C107.645 30.373 107.519 29.8822 106.671 29.8822C105.914 29.8822 105.784 30.26 105.704 30.6166H104.947C105.006 29.9882 105.392 29.2609 106.695 29.2644C107.803 29.2679 108.416 29.7234 108.416 30.7613V32.9431V32.9396ZM107.652 31.7075H106.92C106.015 31.7075 105.532 31.9581 105.532 32.6042C105.532 33.0773 105.854 33.4233 106.415 33.4233C107.508 33.4233 107.652 32.6819 107.652 31.8558V31.7075Z" fill="#FFBA18"/>
<path d="M109.233 30.6095C109.233 29.9705 109.226 29.6104 109.222 29.3668H109.99C110 29.4939 110.014 29.854 110.014 30.2988C110.252 29.681 110.792 29.282 111.542 29.2573V30.0446C110.613 30.0729 110.014 30.5636 110.014 31.718V33.9352H109.233V30.6095Z" fill="#FFBA18"/>
<path d="M112.155 29.3669H112.94V28.0183H113.721V29.3669H114.723V30.0095H113.721V32.6856C113.721 33.1304 113.83 33.3563 114.24 33.3563C114.348 33.3563 114.51 33.3493 114.636 33.3175V33.9106C114.443 33.9812 114.173 33.9954 113.956 33.9954C113.252 33.9954 112.94 33.6282 112.94 32.8691V30.0095H112.155V29.3669Z" fill="#FFBA18"/>
<path d="M148.674 34.4183C148.496 34.4183 148.348 34.2736 148.348 34.09V14.5702C148.348 6.8985 142.153 0.653133 134.535 0.653133C126.917 0.653133 120.721 6.89497 120.721 14.5702V34.0935C120.721 34.2736 120.577 34.4219 120.395 34.4219C120.213 34.4219 120.069 34.2771 120.069 34.0935V14.5702C120.069 6.53839 126.556 0 134.531 0C142.507 0 148.993 6.53486 148.993 14.5702V34.0935C148.993 34.2736 148.85 34.4219 148.667 34.4219L148.674 34.4183Z" fill="#FFBA18"/>
<path d="M146.856 33.4721C146.688 33.4721 146.554 33.338 146.554 33.1685V16.1553C146.554 9.47921 141.165 4.04585 134.535 4.04585C127.905 4.04585 122.515 9.47568 122.515 16.1553V33.1685C122.515 33.338 122.382 33.4721 122.214 33.4721C122.046 33.4721 121.913 33.338 121.913 33.1685V16.1553C121.913 9.14381 127.575 3.44214 134.531 3.44214C141.487 3.44214 147.15 9.14734 147.15 16.1553V33.1685C147.15 33.338 147.017 33.4721 146.849 33.4721H146.856Z" fill="#FFBA18"/>
<path d="M145.037 32.5225C144.883 32.5225 144.76 32.3954 144.76 32.2436V17.7405C144.76 12.0636 140.173 7.4422 134.538 7.4422C128.903 7.4422 124.316 12.0636 124.316 17.7405V32.2436C124.316 32.399 124.19 32.5225 124.04 32.5225C123.889 32.5225 123.763 32.3954 123.763 32.2436V17.7405C123.763 11.7529 128.599 6.88086 134.542 6.88086C140.485 6.88086 145.321 11.7529 145.321 17.7405V32.2436C145.321 32.399 145.195 32.5225 145.044 32.5225H145.037Z" fill="#FFBA18"/>
<path d="M143.222 31.5728C143.082 31.5728 142.967 31.4563 142.967 31.3151V19.3256C142.967 14.6443 139.186 10.8349 134.539 10.8349C129.892 10.8349 126.111 14.6443 126.111 19.3256V31.3151C126.111 31.4563 125.996 31.5728 125.855 31.5728C125.715 31.5728 125.6 31.4563 125.6 31.3151V19.3256C125.6 14.3618 129.608 10.323 134.535 10.323C139.462 10.323 143.471 14.3618 143.471 19.3256V31.3151C143.471 31.4563 143.356 31.5728 143.215 31.5728H143.222Z" fill="#FFBA18"/>
<path d="M141.403 30.6268C141.273 30.6268 141.171 30.5209 141.171 30.3938V20.9145C141.171 17.2288 138.196 14.2314 134.538 14.2314C130.88 14.2314 127.904 17.2288 127.904 20.9145V30.3938C127.904 30.5244 127.799 30.6268 127.673 30.6268C127.547 30.6268 127.442 30.5209 127.442 30.3938V20.9145C127.442 16.971 130.624 13.7654 134.538 13.7654C138.452 13.7654 141.634 16.971 141.634 20.9145V30.3938C141.634 30.5244 141.529 30.6268 141.403 30.6268Z" fill="#FFBA18"/>
<path d="M139.584 29.6768C139.469 29.6768 139.378 29.5815 139.378 29.4685V22.4994C139.378 19.8127 137.209 17.6274 134.542 17.6274C131.875 17.6274 129.706 19.8127 129.706 22.4994V29.4685C129.706 29.585 129.611 29.6768 129.499 29.6768C129.387 29.6768 129.292 29.5815 129.292 29.4685V22.4994C129.292 19.5797 131.651 17.2073 134.545 17.2073C137.44 17.2073 139.798 19.5833 139.798 22.4994V29.4685C139.798 29.585 139.704 29.6768 139.591 29.6768H139.584Z" fill="#FFBA18"/>
<path d="M137.766 28.7273C137.664 28.7273 137.58 28.6426 137.58 28.5402V24.0812C137.58 22.3902 136.217 21.0168 134.538 21.0168C132.86 21.0168 131.496 22.3902 131.496 24.0812V28.5402C131.496 28.6426 131.412 28.7273 131.311 28.7273C131.209 28.7273 131.125 28.6426 131.125 28.5402V24.0812C131.125 22.1854 132.656 20.6426 134.538 20.6426C136.42 20.6426 137.951 22.1854 137.951 24.0812V28.5402C137.951 28.6426 137.867 28.7273 137.766 28.7273Z" fill="#FFBA18"/>
<path d="M135.947 27.7776C135.86 27.7776 135.786 27.7034 135.786 27.6152V25.6699C135.786 24.9779 135.225 24.413 134.539 24.413C133.852 24.413 133.291 24.9779 133.291 25.6699V27.6152C133.291 27.7034 133.218 27.7776 133.13 27.7776C133.042 27.7776 132.969 27.7034 132.969 27.6152V25.6699C132.969 24.7979 133.673 24.0847 134.542 24.0847C135.411 24.0847 136.116 24.7943 136.116 25.6699V27.6152C136.116 27.7034 136.042 27.7776 135.954 27.7776H135.947Z" fill="#FFBA18"/>
</g>
<defs>
<clipPath id="clip0_173_2140">
<rect width="149" height="36" fill="white"/>
</clipPath>
</defs>
</svg>
